<svg width="32" height="32" viewBox="0 0 32 32" fill="none" xmlns="http://www.w3.org/2000/svg">
<path d="M12 24.5H13.5L14 26.5H12V24.5Z" fill="white"/>
<path d="M9.5 26.5H12V28.5H10V30.5L3.5 32V30H1.5V28.5H0V20H2L3 27.5H4.5V29L9.5 28.5V26.5Z" fill="white"/>
<path d="M1.5 16.5L2 20H3.5L3 17H5.5V15H3V16.5H1.5Z" fill="white"/>
<path d="M5 13.5H7L7.4899 17.9091L11.5 17.5V13H13.5V11H15.5L13.5 0H11.5L12 8H10L9 0.5H7L7.5 8L5.5 8.5L5 0.5H3V12H4.5L5 13.5Z" fill="white"/>
<path d="M10.0264 18.8594L8.06003 19.2248L8.33412 20.6996L6.85937 20.9737L7.22482 22.94L8.69957 22.6659L8.97366 24.1406L10.94 23.7752L10.6659 22.3004L12.1406 22.0264L11.7752 20.06L10.3004 20.3341L10.0264 18.8594Z" fill="white"/>
<path fill-rule="evenodd" clip-rule="evenodd" d="M30 26.5H24.5V24.5H23V23L13.5 24.5L13.5 14H16V12H19.5V10.5H24.5V12.5H27V14.5H28V15.5H29.5L31.5 24.5H30V26.5ZM21.0935 16.2039L23.065 15.8674L23.3175 17.346L24.7961 17.0935L25.1326 19.065L23.654 19.3174L23.9065 20.7961L21.935 21.1326L21.6826 19.654L20.2039 19.9065L19.8674 17.935L21.346 17.6826L21.0935 16.2039Z" fill="white"/>
</svg>
